<svg width="100%" height="100%" viewBox="0 0 594 501" fill="none" xmlns="http://www.w3.org/2000/svg">
	<rect width="100%" height="100%" fill="#E7E7E7"/>
	<g clip-path="url(#clip0)">
<rect width="100%" height="100%" fill="#FBE9E9"/>
<path d="M-3.22222 0C228.749 0 358.806 0 590.778 0C590.778 0 841.778 3.99994 590.778 165C339.778 326 234.778 0 -3.22222 165C-241.222 330 -3.22222 0 -3.22222 0Z" fill="url(#paint0_angular)"/>
<path d="M-3.22222 0C228.749 0 358.806 0 590.778 0C590.778 0 841.778 3.99994 590.778 165C339.778 326 234.778 0 -3.22222 165C-241.222 330 -3.22222 0 -3.22222 0Z" fill="url(#paint1_linear)"/>
<path d="M-3.22222 0C228.749 0 358.806 0 590.778 0C590.778 0 841.778 3.99994 590.778 165C339.778 326 234.778 0 -3.22222 165C-241.222 330 -3.22222 0 -3.22222 0Z" fill="url(#paint2_linear)"/>
<path d="M-3.22222 0C228.749 0 358.806 0 590.778 0C590.778 0 841.778 3.99994 590.778 165C339.778 326 234.778 0 -3.22222 165C-241.222 330 -3.22222 0 -3.22222 0Z" fill="url(#paint3_linear)"/>
<path d="M-3.22222 0C228.749 0 358.806 0 590.778 0C590.778 0 841.778 3.99994 590.778 165C339.778 326 234.778 0 -3.22222 165C-241.222 330 -3.22222 0 -3.22222 0Z" fill="url(#paint4_linear)"/>
	<g filter="url(#filter0_df)">
		<circle cx="173.5" cy="318.5" r="75.5" fill="#F2C94C"/>
	</g>
	<g filter="url(#filter1_d)">
		<circle cx="448.5" cy="362.5" r="69.5" fill="#5003CE" fill-opacity="0.25"/>
	</g>
</g>
<defs>
<filter id="filter0_df" x="94" y="239" width="159" height="163" filterUnits="userSpaceOnUse" color-interpolation-filters="sRGB">
<feFlood flood-opacity="0" result="BackgroundImageFix"/>
<feColorMatrix in="SourceAlpha" type="matrix" values="0 0 0 0 0 0 0 0 0 0 0 0 0 0 0 0 0 0 127 0"/>
<feOffset dy="4"/>
<feGaussianBlur stdDeviation="2"/>
<feColorMatrix type="matrix" values="0 0 0 0 0 0 0 0 0 0 0 0 0 0 0 0 0 0 0.25 0"/>
<feBlend mode="normal" in2="BackgroundImageFix" result="effect1_dropShadow"/>
<feBlend mode="normal" in="SourceGraphic" in2="effect1_dropShadow" result="shape"/>
<feGaussianBlur stdDeviation="2" result="effect2_foregroundBlur"/>
</filter>
<filter id="filter1_d" x="375" y="293" width="147" height="147" filterUnits="userSpaceOnUse" color-interpolation-filters="sRGB">
<feFlood flood-opacity="0" result="BackgroundImageFix"/>
<feColorMatrix in="SourceAlpha" type="matrix" values="0 0 0 0 0 0 0 0 0 0 0 0 0 0 0 0 0 0 127 0"/>
<feOffset dy="4"/>
<feGaussianBlur stdDeviation="2"/>
<feColorMatrix type="matrix" values="0 0 0 0 0 0 0 0 0 0 0 0 0 0 0 0 0 0 0.25 0"/>
<feBlend mode="normal" in2="BackgroundImageFix" result="effect1_dropShadow"/>
<feBlend mode="normal" in="SourceGraphic" in2="effect1_dropShadow" result="shape"/>
</filter>
<radialGradient id="paint0_angular" cx="0" cy="0" r="1" gradientUnits="userSpaceOnUse" gradientTransform="translate(293.778 82.5) rotate(120.816) scale(33.1851 119.466)">
<stop offset="0.0833333" stop-color="#1529D6" stop-opacity="0.86"/>
<stop offset="0.880208" stop-color="#13A44D" stop-opacity="0"/>
</radialGradient>
<linearGradient id="paint1_linear" x1="296.667" y1="0" x2="296.667" y2="211.2" gradientUnits="userSpaceOnUse">
<stop stop-color="#F1FFFE"/>
<stop offset="1" stop-color="white" stop-opacity="0"/>
</linearGradient>
<linearGradient id="paint2_linear" x1="296.667" y1="0" x2="296.667" y2="211.2" gradientUnits="userSpaceOnUse">
<stop stop-color="#F1FFFE"/>
<stop offset="1" stop-color="white" stop-opacity="0"/>
</linearGradient>
<linearGradient id="paint3_linear" x1="296.667" y1="0" x2="296.667" y2="211.2" gradientUnits="userSpaceOnUse">
<stop stop-color="#F1FFFE"/>
<stop offset="1" stop-color="white" stop-opacity="0"/>
</linearGradient>
<linearGradient id="paint4_linear" x1="296.667" y1="0" x2="296.667" y2="211.2" gradientUnits="userSpaceOnUse">
<stop stop-color="#F1FFFE"/>
<stop offset="1" stop-color="white" stop-opacity="0"/>
</linearGradient>
	<clipPath id="clip0">
		<rect width="594" height="501" fill="rgba(0,0,0,0.1)"/>
	</clipPath>
</defs>
</svg>
